<svg data-name="Layer 1" xmlns="http://www.w3.org/2000/svg" width="818.406" height="529.105" viewBox="0 0 818.406 529.105"><path d="M816.406 304.62H296.9V8.265h519.506z" fill="#fff"/><path d="M818.406 306.62H294.9V6.265h523.506zm-519.506-4h515.506V10.265H298.9z" fill="#cacaca"/><circle cx="564.641" cy="163.335" r="55.493" fill="#6c63ff"/><path d="M575.281 167.18c-4.496-5.158-8.742-13.479-11.23-20.184-2.486 6.705-6.731 15.026-11.228 20.183l10.047-3.635v22.414h2.362v-22.414z" fill="#fff"/><path fill="#cacaca" d="M577.272 18.891H481.63V0h95.642l9.44 9.446-9.44 9.445z"/><path fill="#3f3d56" d="M482.815 18.891h-95.64V0h95.64l9.442 9.446-9.442 9.445z"/><path fill="#6c63ff" d="M389.541 18.891h-95.642V0h95.642l9.441 9.446-9.441 9.445z"/><path d="M16.77 527.37l.295-1.32c.066-.29 6.753-29.206 28.804-45.39 22.052-16.186 51.642-13.896 51.938-13.87l1.349.113-.296 1.32c-.065.29-6.752 29.206-28.803 45.391-22.053 16.185-51.642 13.895-51.938 13.87zm30.496-44.806c-18.644 13.683-25.953 36.816-27.545 42.64 6.036.224 30.312.177 48.938-13.494 18.625-13.67 25.948-36.813 27.546-42.641-6.04-.223-30.313-.176-48.939 13.495z" fill="#f0f0f0"/><path d="M55.605 489.319c-10.679 25.047-37.05 37.799-37.05 37.799s-9.06-27.857 1.619-52.904 37.05-37.8 37.05-37.8 9.059 27.858-1.62 52.905z" fill="#f0f0f0"/><path d="M329.566 211.667a11.811 11.811 0 00-18.032-1.69l-24.888-10.444-10.036 13.577 35.354 14.255a11.875 11.875 0 0017.602-15.698zm-48.305 301.059l15.203-.001 1.476-54.072-16.682-4.568.003 58.641z" fill="#a0616a"/><path d="M277.383 507.762l29.94-.001h.002a19.082 19.082 0 0119.08 19.08v.62l-49.021.002z" fill="#2f2e41"/><path fill="#a0616a" d="M167.032 512.726l15.203-.001 7.233-58.641-22.439.001.003 58.641z"/><path d="M163.154 507.762l29.94-.001h.002a19.082 19.082 0 0119.08 19.08v.62l-49.021.002z" fill="#2f2e41"/><path d="M258.406 175.105l50.238 28.466-8.89 22.669s-30.952-14.917-32.986-13.862-8.362-37.273-8.362-37.273z" fill="#575a89"/><path d="M201.756 260.741l-11.453 108.803-34.359 125.452 28.632 4.582 82.461-174.7-14.888-93.914-25.197-9.162z" fill="#2f2e41"/><path d="M183.431 259.596s28.636 16.823 37.975 49.51c10 35 28.452 89.07 28.452 89.07l25.196 102.547 30.923-8.017-36.65-233.11-30.922-26.342-40.085-4.58z" fill="#2f2e41"/><circle cx="254.008" cy="54.059" r="26.342" fill="#a0616a"/><path d="M256.352 104.982s-18.915-20.8-33.804-20.8c-4.785 0-38.095 37.115-39.142 63.923l-10.66 118.363s103.076 5.726 104.221 1.145-20.615-162.631-20.615-162.631z" fill="#575a89"/><path d="M240.885 65.574c2.113-.126 4.176.588 6.275.866a15.88 15.88 0 0016.974-11.84 9.084 9.084 0 01.868-2.829c1.156-1.886 3.787-2.246 5.956-1.812s4.225 1.45 6.434 1.565a9.852 9.852 0 008.503-4.813 16.32 16.32 0 002.087-9.856l-1.635 1.716a8.305 8.305 0 01-.74-4.514 5.238 5.238 0 00-4.961 1.27c-1.442.153-.354-2.674-1.425-3.652a2.478 2.478 0 00-1.743-.326c-3.068.03-5.549-2.316-7.966-4.205a33.848 33.848 0 00-14.296-6.52 18.808 18.808 0 00-10.431.505 22.282 22.282 0 00-7.044 4.997c-5.143 4.945-9.697 10.755-11.836 17.56a29.562 29.562 0 00-.142 17.142c.862 2.91 3.46 12.874 7.264 13.106 4.779.292 1.91-8.005 7.858-8.36z" fill="#2f2e41"/><path opacity=".1" style="isolation:isolate" d="M234.047 133.571l-26.974 39.561-8.626 91.895 35.6-131.456z"/><path d="M194.899 300.721a11.811 11.811 0 00-2.35-17.958l4.667-26.584-15.463-6.776-6.064 37.635a11.875 11.875 0 0019.21 13.683z" fill="#a0616a"/><path d="M209.602 96.366l-27.553 89.383s-10.233 56.958-5.652 66.12-4.419 27.197-4.419 27.197l26.342 2.29 12.805-93.607 22.699-71.314s8.992-25.796-24.222-20.07z" fill="#575a89"/><path data-name="Rectangle 25-2" fill="#cacaca" d="M304.214 263.32l20.779-99.697 82.076 17.106-20.779 99.698z"/><path data-name="Rectangle 25-3" fill="#fff" d="M306.238 261.542l19.9-95.48 77.858 16.227-19.9 95.48z"/><g data-name="Group 22"><path data-name="Rectangle 28" fill="#e6e6e6" d="M343.298 182.17l.582-2.792 19.545 4.073-.582 2.793z"/><path data-name="Rectangle 29" fill="#6c63ff" d="M341.588 190.372l.582-2.793 39.771 8.289-.582 2.793z"/><path data-name="Rectangle 30" fill="#e6e6e6" d="M340.557 198.307l.582-2.793 29.153 6.076-.582 2.793z"/><path data-name="Rectangle 31" fill="#e6e6e6" d="M338.174 206.752l.582-2.793 9.685 2.019-.582 2.793z"/><path data-name="Rectangle 32" fill="#6c63ff" d="M336.43 215.122l.582-2.793 23.59 4.917-.582 2.793z"/><path data-name="Rectangle 38" fill="#e6e6e6" d="M334.674 223.545l.582-2.793 19.545 4.073-.582 2.793z"/><path data-name="Rectangle 39" fill="#6c63ff" d="M332.965 231.746l.582-2.793 39.771 8.289-.582 2.793z"/><path data-name="Rectangle 40" fill="#e6e6e6" d="M331.934 239.68l.582-2.792 29.153 6.076-.582 2.793z"/><path data-name="Rectangle 41" fill="#e6e6e6" d="M329.551 248.127l.582-2.793 9.685 2.018-.582 2.793z"/><path data-name="Rectangle 42" fill="#e6e6e6" d="M327.806 256.497l.582-2.793 23.59 4.917-.582 2.793z"/></g><path d="M382 529.105H1a1 1 0 010-2h381a1 1 0 010 2z" fill="#cacaca"/></svg>